<svg width="36" height="48" viewBox="0 0 36 48" fill="none" xmlns="http://www.w3.org/2000/svg">
<path d="M32.4554 6.26131C34.1844 6.24128 35.5697 4.82345 35.5497 3.0945C35.5297 1.36554 34.1118 -0.0198134 32.3829 0.000214444C30.6539 0.0202423 29.2686 1.43807 29.2886 3.16702C29.3086 4.89598 30.7265 6.28134 32.4554 6.26131Z" fill="#875CFF"/>
<path d="M17.0188 47.6589C16.6912 47.6627 16.3542 47.6573 16.0141 47.6458C7.7889 47.3238 3.87578 43.0389 2.04216 39.5027C0.742846 36.9988 0.0375828 34.015 0.0012476 30.8783C-0.0388105 27.4202 0.811828 16.0053 13.4348 13.6183C15.939 13.1442 18.5817 13.1476 21.2916 13.6231C23.0105 13.9246 25.4277 14.4746 28.1712 15.4473L28.7603 11.0763C28.988 9.3861 30.5475 8.19972 32.2377 8.4274C33.9279 8.65509 35.1143 10.2115 34.8866 11.9048L32.0116 33.1996C31.9452 33.8711 31.5317 37.1335 29.6227 40.4257C27.7076 43.7303 23.9814 47.5813 17.0157 47.662L17.0188 47.6589ZM17.0938 19.4453C16.2346 19.4553 15.398 19.536 14.5869 19.6907C7.17906 21.0932 6.14384 27.2466 6.18486 30.7881C6.2295 34.6418 7.59659 41.129 16.2578 41.4676C24.7335 41.799 25.778 33.5098 25.869 32.563L25.8829 32.4299L27.3291 21.7283C24.4818 20.6022 21.9436 20.0135 20.2247 19.7088C19.1562 19.5203 18.1105 19.4335 17.0968 19.4453L17.0938 19.4453Z" fill="#875CFF"/>
</svg>
